<?xml version="1.0" encoding="utf-8"?>
<!-- Generator: Adobe Illustrator 23.1.1, SVG Export Plug-In . SVG Version: 6.00 Build 0)  -->
<svg version="1.1" id="레이어_1" xmlns="http://www.w3.org/2000/svg" xmlns:xlink="http://www.w3.org/1999/xlink" x="0px"
	 y="0px" viewBox="0 0 120 120" style="enable-background:new 0 0 120 120;" xml:space="preserve">
<style type="text/css">
	.st0{display:none;fill:#FFB382;}
	.st1{fill:#FFFFFF;}
</style>
<rect class="st0" width="120" height="120"/>
<path class="st1" d="M116.74,54H66V3.26C66,1.46,64.54,0,62.74,0h-5.48C55.46,0,54,1.46,54,3.26V54H3.26C1.46,54,0,55.46,0,57.26
	v5.48C0,64.54,1.46,66,3.26,66H54v50.74c0,1.8,1.46,3.26,3.26,3.26h5.48c1.8,0,3.26-1.46,3.26-3.26V66h50.74
	c1.8,0,3.26-1.46,3.26-3.26v-5.48C120,55.46,118.54,54,116.74,54z"/>
</svg>
